<svg aria-hidden="true" style="position: absolute; width: 0; height: 0; overflow: hidden;" version="1.1"
    xmlns="http://www.w3.org/2000/svg" xmlns:xlink="http://www.w3.org/1999/xlink">
    <defs>
        <symbol id="icon-arrow" viewBox="0 0 32 32">
            <path fill="#f4bf11" style="fill: var(--color1, #f4bf11)"
                d="M9.228 16.667l7.252 7.252c0.13 0.13 0.198 0.283 0.204 0.459s-0.066 0.337-0.213 0.484c-0.146 0.142-0.303 0.215-0.471 0.217s-0.324-0.071-0.472-0.217l-8.107-8.107c-0.116-0.117-0.198-0.236-0.245-0.357s-0.071-0.253-0.071-0.397 0.024-0.276 0.071-0.397c0.047-0.121 0.129-0.24 0.245-0.356l8.107-8.108c0.124-0.124 0.276-0.191 0.455-0.2s0.343 0.058 0.489 0.2c0.147 0.147 0.22 0.305 0.22 0.475s-0.073 0.329-0.22 0.476l-7.245 7.244h15.44c0.19 0 0.349 0.064 0.476 0.191s0.191 0.286 0.191 0.476c0 0.19-0.064 0.349-0.191 0.476s-0.286 0.191-0.476 0.191h-15.439z">
            </path>
        </symbol>
        <symbol id="icon-close" viewBox="0 0 32 32">
            <path fill="#f4bf11" style="fill: var(--color1, #f4bf11)"
                d="M7 4.172l9 9 9-9 2.828 2.828-9 9 9 9-2.828 2.828-9-9-9 9-2.828-2.828 9-9-9-9 2.828-2.828z"></path>
        </symbol>
        <symbol id="icon-burger" viewBox="0 0 32 32">
            <path fill="#f4bf11" style="fill: var(--color1, #f4bf11)"
                d="M0 1.455c0-0.386 0.14-0.756 0.391-1.029s0.589-0.426 0.943-0.426h29.333c0.354 0 0.693 0.153 0.943 0.426s0.39 0.643 0.39 1.029-0.14 0.756-0.39 1.028c-0.25 0.273-0.589 0.426-0.943 0.426h-29.333c-0.354 0-0.693-0.153-0.943-0.426s-0.391-0.643-0.391-1.028zM0 16c0-0.386 0.14-0.756 0.391-1.028s0.589-0.426 0.943-0.426h29.333c0.354 0 0.693 0.153 0.943 0.426s0.39 0.643 0.39 1.028-0.14 0.756-0.39 1.029c-0.25 0.273-0.589 0.426-0.943 0.426h-29.333c-0.354 0-0.693-0.153-0.943-0.426s-0.391-0.643-0.391-1.029zM1.333 29.091c-0.354 0-0.693 0.153-0.943 0.426s-0.391 0.643-0.391 1.029c0 0.386 0.14 0.756 0.391 1.029s0.589 0.426 0.943 0.426h29.333c0.354 0 0.693-0.153 0.943-0.426s0.39-0.643 0.39-1.029c0-0.386-0.14-0.756-0.39-1.029s-0.589-0.426-0.943-0.426h-29.333z">
            </path>
        </symbol>
    </defs>
</svg>